<svg width="85" height="91" viewBox="0 0 85 91" fill="none" xmlns="http://www.w3.org/2000/svg">
<g filter="url(#filter0_d_5_433)">
<path d="M81 41.5C81 49.7079 78.742 57.7315 74.5116 64.5562C70.2812 71.3808 64.2683 76.7 57.2333 79.841C50.1984 82.982 42.4573 83.8039 34.989 82.2026C27.5208 80.6013 20.6607 76.6488 15.2764 70.8449C9.89208 65.041 6.22531 57.6465 4.73978 49.5962C3.25425 41.546 4.01668 33.2018 6.93065 25.6186C9.84463 18.0355 14.7793 11.5541 21.1106 6.99401C27.4419 2.43393 34.8854 0 42.5 0C47.5559 0 52.5623 1.07343 57.2333 3.159C61.9044 5.24457 66.1486 8.30144 69.7236 12.1551C73.2987 16.0087 76.1346 20.5836 78.0694 25.6186C80.0042 30.6536 81 36.0501 81 41.5ZM67.4421 38.0508C67.4421 36.4395 66.8483 34.8943 65.7913 33.7549C64.7343 32.6156 63.3007 31.9755 61.8059 31.9755C60.3111 31.9755 58.8775 32.6156 57.8206 33.7549C56.7636 34.8943 56.1698 36.4395 56.1698 38.0508V47.3132H28.6892V38.0456C28.6891 36.905 28.3911 35.7875 27.8294 34.821C27.2677 33.8544 26.4648 33.0778 25.5128 32.58C24.5608 32.0823 23.498 31.8834 22.446 32.0063C21.394 32.1291 20.3954 32.5687 19.5644 33.2747C18.7333 33.9807 18.1034 34.9246 17.7468 35.9984C17.3901 37.0722 17.321 38.2326 17.5475 39.3467C17.774 40.4608 18.2869 41.4837 19.0275 42.2984C19.7681 43.113 20.7064 43.6865 21.7352 43.9532V61.4244C21.7365 61.8994 21.9121 62.3546 22.2237 62.6905C22.5354 63.0264 22.9576 63.2157 23.3983 63.2171H61.4655C61.9062 63.2157 62.3285 63.0264 62.6401 62.6905C62.9517 62.3546 63.1274 61.8994 63.1287 61.4244V43.9532C64.3584 43.6332 65.4525 42.8765 66.2349 41.8049C67.0173 40.7334 67.4425 39.4145 67.4421 38.0508ZM25.9514 28.3114C27.8621 28.9772 29.5281 30.2783 30.7101 32.0281C31.8922 33.7778 32.5296 35.8863 32.531 38.0508V43.1617H52.3183V38.0508C52.32 35.8856 52.9581 33.7767 54.1411 32.0269C55.3241 30.277 56.9911 28.9763 58.9027 28.3114V23.0695C58.8989 21.9702 58.4917 20.9172 57.7701 20.1404C57.0485 19.3635 56.0711 18.926 55.0513 18.9232H29.798C28.779 18.9273 27.8028 19.3655 27.0823 20.1422C26.3617 20.9189 25.9552 21.9711 25.9514 23.0695V28.3114Z" fill="black"/>
</g>
<defs>
<filter id="filter0_d_5_433" x="0" y="0" width="85" height="91" filterUnits="userSpaceOnUse" color-interpolation-filters="sRGB">
<feFlood flood-opacity="0" result="BackgroundImageFix"/>
<feColorMatrix in="SourceAlpha" type="matrix" values="0 0 0 0 0 0 0 0 0 0 0 0 0 0 0 0 0 0 127 0" result="hardAlpha"/>
<feOffset dy="4"/>
<feGaussianBlur stdDeviation="2"/>
<feComposite in2="hardAlpha" operator="out"/>
<feColorMatrix type="matrix" values="0 0 0 0 0 0 0 0 0 0 0 0 0 0 0 0 0 0 0.25 0"/>
<feBlend mode="normal" in2="BackgroundImageFix" result="effect1_dropShadow_5_433"/>
<feBlend mode="normal" in="SourceGraphic" in2="effect1_dropShadow_5_433" result="shape"/>
</filter>
</defs>
</svg>
