<svg width="99" height="108" viewBox="0 0 99 108" fill="none" xmlns="http://www.w3.org/2000/svg">
<g filter="url(#filter0_d_5_448)">
<path d="M41.0286 0C37.6455 0 34.8571 2.71094 34.8571 6V8H17.7571C15.2179 8 13 9.69531 12.1643 12C7.72054 12.1406 4.13661 15.6953 4 20.125C4.07232 21.1719 4.96429 22 6.05714 22H92.4571C93.55 22 94.45 21.1719 94.5143 20.125C94.3777 15.6953 90.7937 12.1406 86.35 12C85.5143 9.69531 83.2964 8 80.7571 8H63.6571V6C63.6571 2.71094 60.8687 0 57.4857 0H41.0286ZM41.0286 4H57.4857C58.6268 4 59.5429 4.89063 59.5429 6V8H38.9714V6C38.9714 4.89063 39.8875 4 41.0286 4ZM8.69286 26L18.85 93.5C19.4045 97.2734 22.667 100 26.6286 100H71.8857C75.6946 100 78.7964 97.4453 79.6643 93.5L89.8214 26H8.69286ZM23.0929 32.625C24.2179 32.4922 25.2545 33.2188 25.4071 34.3125L32.1571 84.125C32.3018 85.2188 31.5464 86.2344 30.4214 86.375C30.333 86.3906 30.1884 86.375 30.1 86.375C29.0875 86.375 28.2437 85.6953 28.1071 84.6875L21.2929 34.875C21.1402 33.7812 21.9679 32.7734 23.0929 32.625ZM40.5143 32.625C41.5991 32.5703 42.6518 33.3906 42.7 34.5L44.95 84.3125C44.9982 85.4141 44.0902 86.3281 42.9571 86.375C42.925 86.375 42.925 86.375 42.8929 86.375C41.8 86.375 40.8839 85.5703 40.8357 84.5L38.5857 34.6875C38.5375 33.5859 39.3812 32.6719 40.5143 32.625ZM58 32.625C59.133 32.6719 59.9768 33.5859 59.9286 34.6875L57.6786 84.5C57.6304 85.5703 56.7143 86.375 55.6214 86.375C55.5893 86.375 55.5893 86.375 55.5571 86.375C54.4241 86.3281 53.5161 85.4141 53.5643 84.3125L55.8143 34.5C55.8625 33.3984 56.883 32.6016 58 32.625ZM75.4214 32.625C76.5464 32.7656 77.3741 33.7812 77.2214 34.875L70.4071 84.6875C70.2705 85.6953 69.4268 86.375 68.4143 86.375C68.3259 86.375 68.1893 86.3906 68.0928 86.375C66.9679 86.2344 66.2045 85.2188 66.3571 84.125L73.1071 34.3125C73.2518 33.2188 74.2884 32.4844 75.4214 32.625Z" fill="black"/>
</g>
<defs>
<filter id="filter0_d_5_448" x="0" y="0" width="98.5143" height="108" filterUnits="userSpaceOnUse" color-interpolation-filters="sRGB">
<feFlood flood-opacity="0" result="BackgroundImageFix"/>
<feColorMatrix in="SourceAlpha" type="matrix" values="0 0 0 0 0 0 0 0 0 0 0 0 0 0 0 0 0 0 127 0" result="hardAlpha"/>
<feOffset dy="4"/>
<feGaussianBlur stdDeviation="2"/>
<feComposite in2="hardAlpha" operator="out"/>
<feColorMatrix type="matrix" values="0 0 0 0 0 0 0 0 0 0 0 0 0 0 0 0 0 0 0.25 0"/>
<feBlend mode="normal" in2="BackgroundImageFix" result="effect1_dropShadow_5_448"/>
<feBlend mode="normal" in="SourceGraphic" in2="effect1_dropShadow_5_448" result="shape"/>
</filter>
</defs>
</svg>
