<svg width="59" height="100" viewBox="0 0 59 100" fill="none" xmlns="http://www.w3.org/2000/svg">
<path d="M52.5953 21.7738H45.4771V2.5125C45.4771 1.1248 44.3521 0 42.9646 0C41.5771 0 40.4521 1.1248 40.4521 2.5125V21.7738H19.5979V2.5125C19.5979 1.1248 18.4727 0 17.0854 0C15.6979 0 14.5729 1.1248 14.5729 2.5125V21.7738H6.19844C2.78067 21.7738 0 24.5545 0 27.9723V33.834C0 36.9965 2.38145 39.6115 5.44473 39.985L8.76817 61.4902C9.76973 67.9904 15.0834 72.7799 21.5656 73.1693V78.3691C21.5656 81.4939 23.8805 84.0867 26.8848 84.5244V97.4873C26.8848 98.875 28.01 99.9998 29.3973 99.9998C30.7848 99.9998 31.9098 98.875 31.9098 97.4873V84.5244C34.9141 84.0869 37.2289 81.4939 37.2289 78.3691V73.1693C43.7107 72.7799 49.0246 67.9904 50.0262 61.4914L53.3498 39.985C56.4131 39.6115 58.7945 36.9965 58.7945 33.834V27.9721C58.7938 24.5545 56.0131 21.7738 52.5953 21.7738ZM32.2033 78.3693C32.2033 79.0289 31.668 79.5652 31.0098 79.5652H27.7838C27.1258 79.5652 26.5902 79.0287 26.5902 78.3693V73.1984H32.2033V78.3693ZM53.7687 33.8342C53.7687 34.4813 53.2424 35.0076 52.5953 35.0076H48.3666C46.9791 35.0076 45.8541 36.1324 45.8541 37.5201C45.8541 38.8711 46.9213 39.9699 48.2578 40.0271L45.0592 60.7254C44.3943 65.041 40.7418 68.1734 36.3742 68.1734H34.716H24.0777H22.4195C18.0518 68.1734 14.3992 65.0412 13.7344 60.7244L10.5367 40.0326H33.5631C34.9506 40.0326 36.0756 38.9078 36.0756 37.5201C36.0756 36.1324 34.9504 35.0076 33.5631 35.0076H6.19824C5.55117 35.0076 5.02481 34.4813 5.02481 33.8342V27.9723C5.02481 27.3252 5.55117 26.7988 6.19824 26.7988H52.5953C53.2424 26.7988 53.7687 27.3252 53.7687 27.9723V33.8342Z" fill="black"/>
</svg>
