<svg width="94" height="108" viewBox="0 0 94 108" fill="none" xmlns="http://www.w3.org/2000/svg">
<g filter="url(#filter0_d_5_450)">
<path d="M59.4043 0L4 13.6662V95.2336L59.3535 100L89.5324 94.8715V12.2203L59.4043 0ZM53.4744 92.1371L35.3916 90.5797V75.0668L24.6326 74.9346V89.6533L11.3301 88.5076V19.4076L53.4744 9.01231V92.1371Z" fill="black"/>
<path d="M49.7447 15.026L41.0117 16.8594V27.1398L49.7447 25.634V15.026Z" fill="black"/>
<path d="M19.9251 21.8814L13.8396 23.1684V32.191L19.9251 31.1463V21.8814Z" fill="black"/>
<path d="M33.8779 18.7387L26.1462 20.3574V29.8881L33.8779 28.5551V18.7387Z" fill="black"/>
<path d="M19.9255 39.6844L13.8396 40.5172V49.5551L19.9255 48.9496V39.6844Z" fill="black"/>
<path d="M33.8779 37.6547L26.1462 38.702V48.2328L33.8779 47.4711V37.6547Z" fill="black"/>
<path d="M49.7447 35.3594L41.0117 36.5424V46.6623L49.7447 45.802V35.3594Z" fill="black"/>
<path d="M49.7447 55.8857L41.0117 56.4236V66.5434L49.7447 66.3281V55.8857Z" fill="black"/>
<path d="M33.8779 56.9289L26.1462 57.4051V66.9359L33.8779 66.7455V56.9289Z" fill="black"/>
<path d="M19.9251 57.8512L13.8396 58.2297V67.2674L19.9251 67.116V57.8512Z" fill="black"/>
</g>
<defs>
<filter id="filter0_d_5_450" x="0" y="0" width="93.5325" height="108" filterUnits="userSpaceOnUse" color-interpolation-filters="sRGB">
<feFlood flood-opacity="0" result="BackgroundImageFix"/>
<feColorMatrix in="SourceAlpha" type="matrix" values="0 0 0 0 0 0 0 0 0 0 0 0 0 0 0 0 0 0 127 0" result="hardAlpha"/>
<feOffset dy="4"/>
<feGaussianBlur stdDeviation="2"/>
<feComposite in2="hardAlpha" operator="out"/>
<feColorMatrix type="matrix" values="0 0 0 0 0 0 0 0 0 0 0 0 0 0 0 0 0 0 0.25 0"/>
<feBlend mode="normal" in2="BackgroundImageFix" result="effect1_dropShadow_5_450"/>
<feBlend mode="normal" in="SourceGraphic" in2="effect1_dropShadow_5_450" result="shape"/>
</filter>
</defs>
</svg>
