<?xml version="1.0" encoding="utf-8"?>
<svg xmlns="http://www.w3.org/2000/svg" viewBox="0 0 500 500" xmlns:bx="https://boxy-svg.com">
  <defs>
    <linearGradient id="gradient-1" bx:pinned="true">
      <stop offset="0.752" style="stop-color: rgb(162, 31, 31);"/>
    </linearGradient>
  </defs>
  <g/>
  <g transform="matrix(1, 0, 0, 1, 23.795534, -152.014008)">
    <path style="stroke: rgb(0, 0, 0); fill: rgb(23, 34, 79);" d="M 226.688 358.702 C 232.278 362.42 237.996 365.947 243.842 369.281 C 225.281 388.329 207.679 399.33 191.036 402.282 C 188.505 393.9 187.27 385.68 187.33 377.622 C 200.231 374.218 213.336 367.802 226.645 358.371"/>
    <path style="stroke: rgb(0, 0, 0); fill: rgb(248, 235, 194);" d="M 249.533 372.001 C 240.822 388.844 223.56 404.087 197.747 417.729 C 196.07 415.06 194.376 411.295 192.663 406.433 C 210.59 402.656 229.321 391.112 248.854 371.8"/>
    <path style="stroke: rgb(0, 0, 0); fill: rgb(225, 198, 109);" d="M 254.544 374.392 C 243.145 401.958 228.09 421.292 209.378 432.395 C 206.003 429.385 203.056 425.806 200.536 421.657 C 222.817 410.911 240.578 395.094 253.821 374.206"/>
    <path style="stroke: rgb(0, 0, 0); fill: rgb(22, 35, 79);" d="M 265.081 377.929 L 258.748 376.103 C 246.016 406.431 230.751 426.345 212.952 435.844 C 217.638 440.115 222.036 443.386 226.146 445.657 C 251.486 427.798 264.464 405.222 265.081 377.929 Z"/>
  </g>
</svg>