<?xml version="1.0" encoding="utf-8"?>
<svg xmlns="http://www.w3.org/2000/svg" viewBox="0 0 500 200">
  <g transform="matrix(1, 0, 0, 1, 2.455022, -0.409998) ">
    <path fill-rule="nonzero" id="Wheel" fill-opacity="1" d="M 283.746 99.228 C 280.838 99.422 278.085 100.176 275.597 101.398 L 275.601 101.398 L 282.685 113.661 C 282.704 113.708 282.722 113.742 282.733 113.788 L 282.733 113.776 C 283.065 113.673 283.411 113.582 283.764 113.513 L 283.767 113.501 C 283.754 113.467 283.746 113.422 283.746 113.376 L 283.746 99.228 Z M 286.653 99.228 L 286.653 113.376 C 286.653 113.422 286.648 113.467 286.634 113.501 L 286.637 113.513 C 287.002 113.582 287.359 113.673 287.696 113.799 C 287.714 113.754 287.728 113.708 287.753 113.661 L 294.825 101.422 L 294.829 101.411 C 292.336 100.187 289.577 99.422 286.655 99.228 L 286.653 99.228 Z M 273.082 102.851 C 270.727 104.439 268.705 106.462 267.126 108.816 L 279.393 115.902 C 279.426 115.924 279.46 115.948 279.488 115.971 C 279.723 115.708 279.974 115.456 280.243 115.216 L 280.247 115.216 C 280.217 115.193 280.192 115.159 280.166 115.113 L 273.086 102.851 L 273.082 102.851 Z M 297.338 102.872 L 290.269 115.113 C 290.243 115.159 290.211 115.204 290.174 115.238 L 290.177 115.238 C 290.447 115.467 290.698 115.719 290.932 115.993 C 290.964 115.958 291.002 115.924 291.042 115.902 L 303.291 108.838 L 303.294 108.838 C 301.716 106.484 299.692 104.45 297.341 102.872 L 297.338 102.872 Z M 263.48 119.491 Z M 265.667 111.331 C 264.444 113.822 263.678 116.575 263.48 119.491 L 277.628 119.491 C 277.677 119.491 277.721 119.501 277.763 119.513 C 277.833 119.159 277.928 118.805 278.044 118.462 L 278.048 118.462 C 278.011 118.462 277.975 118.439 277.944 118.415 L 265.667 111.331 Z M 304.742 111.353 L 292.496 118.415 C 292.453 118.439 292.406 118.462 292.357 118.473 L 292.361 118.473 C 292.478 118.805 292.568 119.159 292.635 119.513 L 292.638 119.513 C 292.682 119.501 292.726 119.491 292.773 119.491 L 306.92 119.491 L 306.923 119.491 C 306.728 116.588 305.967 113.833 304.746 111.353 L 304.742 111.353 Z M 285.201 118.108 C 283.632 118.108 282.361 119.376 282.361 120.941 C 282.361 122.508 283.632 123.776 285.201 123.776 C 286.769 123.776 288.04 122.508 288.04 120.941 C 288.04 119.376 286.769 118.108 285.201 118.108 Z M 292.635 122.381 C 292.568 122.736 292.475 123.079 292.357 123.422 L 292.361 123.422 C 292.414 123.434 292.459 123.445 292.507 123.479 L 304.746 130.542 C 305.967 128.051 306.728 125.307 306.923 122.393 L 292.773 122.393 C 292.726 122.393 292.682 122.381 292.638 122.381 L 292.635 122.381 Z M 277.759 122.381 C 277.715 122.381 277.671 122.393 277.628 122.393 L 263.491 122.393 L 263.48 122.393 C 263.678 125.307 264.444 128.062 265.667 130.553 L 277.928 123.479 C 277.965 123.456 278.005 123.445 278.044 123.422 L 278.048 123.422 C 277.928 123.091 277.833 122.736 277.763 122.381 L 277.759 122.381 Z M 290.929 125.891 C 290.692 126.165 290.435 126.428 290.159 126.668 L 290.162 126.668 C 290.2 126.702 290.229 126.736 290.254 126.782 L 297.324 139.022 C 299.677 137.445 301.708 135.411 303.287 133.056 L 303.291 133.056 L 291.056 125.993 C 291.01 125.958 290.968 125.936 290.932 125.891 L 290.929 125.891 Z M 279.484 125.913 C 279.455 125.948 279.42 125.971 279.38 125.993 L 267.126 133.068 C 268.705 135.422 270.739 137.456 273.1 139.045 L 280.181 126.782 C 280.203 126.736 280.229 126.713 280.257 126.678 L 280.262 126.678 C 279.984 126.439 279.727 126.187 279.488 125.913 L 279.484 125.913 Z M 282.747 128.108 C 282.737 128.152 282.718 128.187 282.696 128.234 L 275.616 140.496 L 275.62 140.496 C 278.1 141.708 280.844 142.462 283.746 142.657 L 283.746 128.519 C 283.746 128.462 283.754 128.415 283.767 128.381 C 283.421 128.314 283.079 128.221 282.751 128.108 L 282.747 128.108 Z M 287.685 128.096 C 287.344 128.211 286.992 128.302 286.631 128.381 L 286.634 128.381 C 286.648 128.415 286.653 128.462 286.653 128.519 L 286.653 142.657 C 289.565 142.462 292.321 141.708 294.807 140.484 L 294.811 140.484 L 287.739 128.234 C 287.718 128.187 287.696 128.142 287.687 128.096 L 287.685 128.096 Z M 285.201 93.501 C 300.36 93.501 312.646 105.788 312.646 120.941 C 312.646 136.096 300.36 148.381 285.201 148.381 C 270.043 148.381 257.757 136.096 257.757 120.941 C 257.757 105.788 270.043 93.501 285.201 93.501 Z M 285.201 80.942 C 263.115 80.942 245.205 98.851 245.205 120.941 C 245.205 143.034 263.115 160.941 285.201 160.941 C 307.293 160.941 325.205 143.034 325.205 120.941 C 325.205 98.851 307.293 80.942 285.201 80.942 Z M 285.201 80.942" style="stroke-width: 1px; fill: rgb(5, 0, 0);">
      <title>wheel</title>
    </path>
    <rect x="63.822" y="121.76" width="178.831" height="1.623" style="stroke: rgb(0, 0, 0); fill: rgb(2, 0, 0); stroke-width: 1px;"/>
    <rect x="327.738" y="121.689" width="78.941" height="2.372" style="stroke: rgb(0, 0, 0); fill: rgb(2, 0, 0); stroke-width: 1px;"/>
    <g id="trunk">

    <path d="M 64.537 1.879 L 406.969 1.879 L 406.969 95.423 L 407.643 95.423 C 408.362 94.241 409.386 93.501 410.522 93.501 C 412.697 93.501 414.46 96.212 414.46 99.556 C 414.46 102.9 412.697 105.609 410.522 105.609 C 409.449 105.609 408.476 104.949 407.765 103.88 L 406.969 103.88 L 406.969 108.721 L 326.451 108.721 C 321.599 91.436 305.087 78.709 285.462 78.709 C 265.837 78.709 249.325 91.436 244.473 108.721 L 64.537 108.721 L 64.537 1.879 Z" style="stroke: black; stroke-width: 1px;"/>
    <g transform="matrix(1, 0, 0, 1, 134.281448, -353.03421)">
      <path style="stroke: rgb(0, 0, 0); fill: rgb(23, 34, 79);" d="M 226.688 358.702 C 232.278 362.42 237.996 365.947 243.842 369.281 C 225.281 388.329 207.679 399.33 191.036 402.282 C 188.505 393.9 187.27 385.68 187.33 377.622 C 200.231 374.218 213.336 367.802 226.645 358.371"/>
      <path style="stroke: rgb(0, 0, 0); fill: rgb(248, 235, 194);" d="M 249.533 372.001 C 240.822 388.844 223.56 404.087 197.747 417.729 C 196.07 415.06 194.376 411.295 192.663 406.433 C 210.59 402.656 229.321 391.112 248.854 371.8"/>
      <path style="stroke: rgb(0, 0, 0); fill: rgb(225, 198, 109);" d="M 254.544 374.392 C 243.145 401.958 228.09 421.292 209.378 432.395 C 206.003 429.385 203.056 425.806 200.536 421.657 C 222.817 410.911 240.578 395.094 253.821 374.206"/>
      <path style="stroke: rgb(0, 0, 0); fill: rgb(22, 35, 79);" d="M 265.081 377.929 L 258.748 376.103 C 246.016 406.431 230.751 426.345 212.952 435.844 C 217.638 440.115 222.036 443.386 226.146 445.657 C 251.486 427.798 264.464 405.222 265.081 377.929 Z"/>
    </g>
    <text style="fill: rgb(254, 254, 254); font-family: &quot;Arial&quot;, sans-serif; font-size: 41px; font-weight: 700; stroke: rgb(57, 52, 19); white-space: pre; stroke-width: 1px;" x="100.591" y="68.451">TCS-JUNK</text>
  </g>
    <path d="M 0.63 109.07 L 9.089 109.07 C 9.175 108.922 9.279 108.766 9.4 108.602 L 15.303 100.625 C 15.238 100.519 15.204 100.413 15.204 100.305 C 15.204 99.745 16.111 99.208 17.727 98.812 C 19.342 98.415 21.533 98.193 23.817 98.193 C 26.101 98.193 28.292 98.415 29.908 98.811 C 31.523 99.208 32.431 99.745 32.431 100.305 C 32.431 100.865 31.523 101.402 29.908 101.798 C 28.292 102.195 26.101 102.417 23.817 102.417 C 22.738 102.417 21.68 102.367 20.693 102.273 L 25.377 108.602 C 25.498 108.766 25.602 108.922 25.688 109.07 L 244.045 109.07 C 243.379 111.923 243.028 114.888 243.028 117.931 C 243.028 118.474 243.039 119.014 243.061 119.551 L 0.63 119.551 L 0.63 109.07 Z M 406.951 109.07 L 406.951 119.551 L 327.863 119.551 C 327.885 119.014 327.896 118.474 327.896 117.931 C 327.896 114.888 327.545 111.923 326.879 109.07 L 406.951 109.07 Z" style="stroke: rgb(0, 0, 0); fill: rgb(0, 0, 0); stroke-width: 1px;"/>

    </g>
    
</svg>