<?xml version="1.0" encoding="UTF-8"?>
<svg xmlns="http://www.w3.org/2000/svg" xmlns:xlink="http://www.w3.org/1999/xlink" width="4303" height="1502" viewBox="0 0 4303 1502">
<path fill-rule="nonzero" fill="rgb(0%, 0%, 0%)" fill-opacity="1" d="M 657.925781 942.59375 C 631.601562 944.332031 606.691406 951.238281 584.203125 962.3125 L 584.234375 962.316406 L 648.320312 1073.3125 C 648.515625 1073.65625 648.664062 1074.007812 648.765625 1074.375 L 648.765625 1074.371094 C 651.785156 1073.332031 654.902344 1072.496094 658.09375 1071.886719 L 658.121094 1071.882812 C 658.011719 1071.488281 657.953125 1071.074219 657.953125 1070.648438 L 657.953125 942.59375 Z M 684.246094 942.59375 L 684.246094 1070.648438 C 684.246094 1071.070312 684.1875 1071.484375 684.074219 1071.882812 L 684.113281 1071.886719 C 687.40625 1072.519531 690.617188 1073.386719 693.726562 1074.476562 L 693.726562 1074.472656 C 693.828125 1074.070312 693.984375 1073.683594 694.195312 1073.316406 L 758.214844 962.4375 L 758.246094 962.429688 C 735.691406 951.289062 710.695312 944.335938 684.273438 942.597656 L 684.273438 942.59375 Z M 561.441406 975.472656 C 540.121094 989.78125 521.753906 1008.144531 507.4375 1029.460938 L 507.472656 1029.464844 L 618.539062 1093.585938 C 618.851562 1093.765625 619.132812 1093.976562 619.386719 1094.21875 L 619.386719 1094.210938 C 621.503906 1091.78125 623.789062 1089.496094 626.226562 1087.386719 L 626.257812 1087.382812 C 625.988281 1087.109375 625.75 1086.800781 625.554688 1086.460938 L 561.472656 975.472656 Z M 780.957031 975.625 L 716.964844 1086.460938 C 716.734375 1086.863281 716.445312 1087.222656 716.109375 1087.535156 L 716.144531 1087.539062 C 718.574219 1089.652344 720.851562 1091.941406 722.960938 1094.386719 L 722.960938 1094.382812 C 723.257812 1094.074219 723.597656 1093.804688 723.972656 1093.585938 L 834.824219 1029.59375 L 834.851562 1029.589844 C 820.574219 1008.292969 802.25 989.941406 780.984375 975.625 Z M 474.515625 1126.035156 L 474.515625 1126.039062 Z M 494.265625 1052.210938 C 483.171875 1074.726562 476.25 1099.667969 474.515625 1126.035156 L 474.515625 1126.039062 L 602.574219 1126.03125 C 602.992188 1126.03125 603.402344 1126.089844 603.800781 1126.203125 L 603.800781 1126.199219 C 604.417969 1122.96875 605.265625 1119.820312 606.320312 1116.773438 L 606.351562 1116.769531 C 606.019531 1116.667969 605.699219 1116.53125 605.398438 1116.351562 L 494.296875 1052.210938 Z M 847.976562 1052.351562 L 737.121094 1116.355469 C 736.726562 1116.582031 736.308594 1116.746094 735.878906 1116.851562 L 735.910156 1116.855469 C 736.953125 1119.878906 737.789062 1123 738.402344 1126.203125 L 738.40625 1126.199219 C 738.800781 1126.089844 739.210938 1126.035156 739.628906 1126.035156 L 867.65625 1126.035156 L 867.6875 1126.03125 C 865.953125 1099.726562 859.058594 1074.832031 848.003906 1052.355469 L 848.003906 1052.351562 Z M 671.101562 1113.480469 C 656.90625 1113.480469 645.402344 1124.984375 645.402344 1139.175781 C 645.402344 1153.371094 656.90625 1164.875 671.101562 1164.875 C 685.296875 1164.875 696.796875 1153.371094 696.796875 1139.175781 C 696.796875 1124.984375 685.292969 1113.480469 671.101562 1113.480469 Z M 738.398438 1152.164062 C 737.777344 1155.394531 736.933594 1158.546875 735.875 1161.605469 L 735.921875 1161.609375 C 736.371094 1161.703125 736.816406 1161.871094 737.238281 1162.113281 L 847.980469 1226.054688 L 847.980469 1226.050781 C 859.046875 1203.558594 865.949219 1178.648438 867.6875 1152.332031 L 867.714844 1152.328125 L 739.628906 1152.320312 C 739.210938 1152.320312 738.8125 1152.265625 738.429688 1152.167969 L 738.429688 1152.164062 Z M 603.769531 1152.164062 C 603.382812 1152.269531 602.980469 1152.320312 602.574219 1152.320312 L 474.546875 1152.324219 L 474.515625 1152.332031 C 476.253906 1178.707031 483.183594 1203.664062 494.292969 1226.199219 L 494.292969 1226.195312 L 605.28125 1162.113281 C 605.613281 1161.925781 605.960938 1161.777344 606.320312 1161.679688 L 606.351562 1161.675781 C 605.285156 1158.601562 604.425781 1155.421875 603.800781 1152.164062 Z M 722.953125 1183.984375 C 720.800781 1186.472656 718.472656 1188.800781 715.988281 1190.960938 L 716.019531 1190.96875 C 716.339844 1191.261719 716.621094 1191.609375 716.851562 1192.007812 L 780.832031 1302.835938 L 780.832031 1302.832031 C 802.144531 1288.515625 820.507812 1270.144531 834.8125 1248.828125 L 834.84375 1248.824219 L 724.089844 1184.882812 C 723.671875 1184.640625 723.296875 1184.335938 722.980469 1183.984375 Z M 619.371094 1184.160156 C 619.09375 1184.433594 618.78125 1184.679688 618.425781 1184.882812 L 507.445312 1248.960938 L 507.476562 1248.957031 C 521.820312 1270.296875 540.230469 1288.675781 561.597656 1302.988281 L 561.597656 1302.984375 L 625.667969 1192.007812 C 625.859375 1191.679688 626.089844 1191.375 626.351562 1191.109375 L 626.382812 1191.105469 C 623.894531 1188.960938 621.5625 1186.636719 619.402344 1184.160156 Z M 648.898438 1204.039062 C 648.796875 1204.421875 648.644531 1204.796875 648.433594 1205.152344 L 584.359375 1316.140625 L 584.390625 1316.136719 C 606.839844 1327.15625 631.695312 1334.03125 657.953125 1335.765625 L 657.953125 1207.707031 C 657.953125 1207.28125 658.011719 1206.871094 658.121094 1206.488281 L 658.152344 1206.480469 C 654.992188 1205.878906 651.914062 1205.058594 648.925781 1204.042969 L 648.925781 1204.039062 Z M 693.566406 1203.9375 C 690.488281 1205.007812 687.308594 1205.859375 684.046875 1206.488281 L 684.082031 1206.492188 C 684.1875 1206.882812 684.246094 1207.289062 684.246094 1207.707031 L 684.246094 1335.765625 L 684.246094 1335.761719 C 710.601562 1334.027344 735.542969 1327.105469 758.058594 1316.019531 L 758.085938 1316.015625 L 694.082031 1205.152344 C 693.859375 1204.769531 693.695312 1204.359375 693.597656 1203.9375 Z M 671.101562 890.765625 C 808.292969 890.765625 919.511719 1001.984375 919.511719 1139.175781 C 919.511719 1276.371094 808.292969 1387.589844 671.101562 1387.589844 C 533.90625 1387.589844 422.6875 1276.371094 422.6875 1139.175781 C 422.6875 1001.984375 533.90625 890.765625 671.101562 890.765625 Z M 671.101562 777.109375 C 471.140625 777.109375 309.035156 939.214844 309.035156 1139.175781 C 309.035156 1339.136719 471.140625 1501.246094 671.101562 1501.246094 C 871.0625 1501.246094 1033.171875 1339.136719 1033.171875 1139.175781 C 1033.171875 939.214844 871.0625 777.109375 671.101562 777.109375 Z M 671.101562 777.109375 "/>
<path fill-rule="nonzero" fill="rgb(0%, 0%, 0%)" fill-opacity="1" d="M 3280.300781 942.59375 C 3253.96875 944.332031 3229.070312 951.238281 3206.570312 962.3125 L 3206.609375 962.316406 L 3270.691406 1073.3125 C 3270.890625 1073.65625 3271.039062 1074.007812 3271.140625 1074.375 L 3271.140625 1074.371094 C 3274.160156 1073.332031 3277.269531 1072.496094 3280.46875 1071.886719 L 3280.5 1071.882812 C 3280.390625 1071.488281 3280.328125 1071.074219 3280.328125 1070.648438 L 3280.328125 942.59375 Z M 3306.621094 942.59375 L 3306.621094 1070.648438 C 3306.621094 1071.070312 3306.558594 1071.484375 3306.449219 1071.882812 L 3306.480469 1071.886719 C 3309.78125 1072.519531 3312.988281 1073.386719 3316.101562 1074.476562 L 3316.101562 1074.472656 C 3316.199219 1074.070312 3316.359375 1073.683594 3316.570312 1073.316406 L 3380.589844 962.4375 L 3380.621094 962.429688 C 3358.058594 951.289062 3333.070312 944.335938 3306.640625 942.597656 L 3306.640625 942.59375 Z M 3183.820312 975.472656 C 3162.5 989.78125 3144.128906 1008.144531 3129.808594 1029.460938 L 3129.851562 1029.464844 L 3240.910156 1093.585938 C 3241.230469 1093.765625 3241.511719 1093.976562 3241.761719 1094.21875 L 3241.761719 1094.210938 C 3243.878906 1091.78125 3246.160156 1089.496094 3248.601562 1087.386719 L 3248.628906 1087.382812 C 3248.359375 1087.109375 3248.128906 1086.800781 3247.929688 1086.460938 L 3183.851562 975.472656 Z M 3403.328125 975.625 L 3339.339844 1086.460938 C 3339.109375 1086.863281 3338.820312 1087.222656 3338.480469 1087.535156 L 3338.519531 1087.539062 C 3340.941406 1089.652344 3343.21875 1091.941406 3345.328125 1094.386719 L 3345.328125 1094.382812 C 3345.628906 1094.074219 3345.96875 1093.804688 3346.351562 1093.585938 L 3457.199219 1029.59375 L 3457.230469 1029.589844 C 3442.941406 1008.292969 3424.628906 989.941406 3403.359375 975.625 Z M 3096.890625 1126.035156 L 3096.890625 1126.039062 C 3096.890625 1126.039062 3096.890625 1126.035156 3096.890625 1126.035156 Z M 3116.640625 1052.210938 C 3105.550781 1074.726562 3098.628906 1099.667969 3096.890625 1126.035156 L 3096.890625 1126.039062 L 3224.949219 1126.03125 C 3225.359375 1126.03125 3225.78125 1126.089844 3226.171875 1126.203125 L 3226.171875 1126.199219 C 3226.789062 1122.96875 3227.640625 1119.820312 3228.699219 1116.773438 L 3228.730469 1116.769531 C 3228.390625 1116.667969 3228.070312 1116.53125 3227.769531 1116.351562 L 3116.671875 1052.210938 Z M 3470.351562 1052.351562 L 3359.488281 1116.355469 C 3359.101562 1116.582031 3358.679688 1116.746094 3358.25 1116.851562 L 3358.28125 1116.855469 C 3359.320312 1119.878906 3360.160156 1123 3360.769531 1126.203125 L 3360.78125 1126.199219 C 3361.171875 1126.089844 3361.589844 1126.035156 3362 1126.035156 L 3490.03125 1126.035156 L 3490.058594 1126.03125 C 3488.320312 1099.726562 3481.429688 1074.832031 3470.378906 1052.355469 L 3470.378906 1052.351562 Z M 3293.46875 1113.480469 C 3279.28125 1113.480469 3267.769531 1124.984375 3267.769531 1139.175781 C 3267.769531 1153.371094 3279.28125 1164.875 3293.46875 1164.875 C 3307.671875 1164.875 3319.171875 1153.371094 3319.171875 1139.175781 C 3319.171875 1124.984375 3307.660156 1113.480469 3293.46875 1113.480469 Z M 3360.769531 1152.164062 C 3360.148438 1155.394531 3359.308594 1158.546875 3358.25 1161.605469 L 3358.289062 1161.609375 C 3358.75 1161.703125 3359.191406 1161.871094 3359.609375 1162.113281 L 3470.351562 1226.054688 L 3470.351562 1226.050781 C 3481.421875 1203.558594 3488.320312 1178.648438 3490.058594 1152.332031 L 3490.089844 1152.328125 L 3362 1152.320312 C 3361.589844 1152.320312 3361.179688 1152.265625 3360.800781 1152.167969 L 3360.800781 1152.164062 Z M 3226.140625 1152.164062 C 3225.761719 1152.269531 3225.359375 1152.320312 3224.949219 1152.320312 L 3096.921875 1152.324219 L 3096.890625 1152.332031 C 3098.628906 1178.707031 3105.558594 1203.664062 3116.660156 1226.199219 L 3116.660156 1226.195312 L 3227.660156 1162.113281 C 3227.980469 1161.925781 3228.339844 1161.777344 3228.699219 1161.679688 L 3228.730469 1161.675781 C 3227.660156 1158.601562 3226.800781 1155.421875 3226.179688 1152.164062 Z M 3345.320312 1183.984375 C 3343.171875 1186.472656 3340.839844 1188.800781 3338.359375 1190.960938 L 3338.390625 1190.96875 C 3338.71875 1191.261719 3338.988281 1191.609375 3339.21875 1192.007812 L 3403.210938 1302.835938 L 3403.210938 1302.832031 C 3424.519531 1288.515625 3442.878906 1270.144531 3457.191406 1248.828125 L 3457.21875 1248.824219 L 3346.46875 1184.882812 C 3346.050781 1184.640625 3345.671875 1184.335938 3345.351562 1183.984375 Z M 3241.75 1184.160156 C 3241.46875 1184.433594 3241.148438 1184.679688 3240.800781 1184.882812 L 3129.820312 1248.960938 L 3129.851562 1248.957031 C 3144.199219 1270.296875 3162.609375 1288.675781 3183.96875 1302.988281 L 3183.96875 1302.984375 L 3248.039062 1192.007812 C 3248.230469 1191.679688 3248.460938 1191.375 3248.730469 1191.109375 L 3248.761719 1191.105469 C 3246.269531 1188.960938 3243.929688 1186.636719 3241.78125 1184.160156 Z M 3271.269531 1204.039062 C 3271.171875 1204.421875 3271.019531 1204.796875 3270.808594 1205.152344 L 3206.730469 1316.140625 L 3206.761719 1316.136719 C 3229.21875 1327.15625 3254.070312 1334.03125 3280.328125 1335.765625 L 3280.328125 1207.707031 C 3280.328125 1207.28125 3280.390625 1206.871094 3280.488281 1206.488281 L 3280.519531 1206.480469 C 3277.359375 1205.878906 3274.289062 1205.058594 3271.300781 1204.042969 L 3271.300781 1204.039062 Z M 3315.941406 1203.9375 C 3312.859375 1205.007812 3309.679688 1205.859375 3306.421875 1206.488281 L 3306.449219 1206.492188 C 3306.558594 1206.882812 3306.621094 1207.289062 3306.621094 1207.707031 L 3306.621094 1335.765625 L 3306.621094 1335.761719 C 3332.980469 1334.027344 3357.921875 1327.105469 3380.429688 1316.019531 L 3380.460938 1316.015625 L 3316.460938 1205.152344 C 3316.230469 1204.769531 3316.070312 1204.359375 3315.96875 1203.9375 Z M 3293.46875 890.765625 C 3430.671875 890.765625 3541.890625 1001.984375 3541.890625 1139.175781 C 3541.890625 1276.371094 3430.671875 1387.589844 3293.46875 1387.589844 C 3156.28125 1387.589844 3045.058594 1276.371094 3045.058594 1139.175781 C 3045.058594 1001.984375 3156.28125 890.765625 3293.46875 890.765625 Z M 3293.46875 777.109375 C 3093.511719 777.109375 2931.410156 939.214844 2931.410156 1139.175781 C 2931.410156 1339.136719 3093.511719 1501.246094 3293.46875 1501.246094 C 3493.429688 1501.246094 3655.539062 1339.136719 3655.539062 1139.175781 C 3655.539062 939.214844 3493.429688 777.109375 3293.46875 777.109375 Z M 3293.46875 777.109375 "/>
<path fill-rule="nonzero" fill="rgb(0%, 0%, 0%)" fill-opacity="1" d="M 2102.941406 77.121094 L 2386.800781 77.128906 C 2399.21875 77.128906 2409.691406 86.371094 2411.21875 98.691406 L 2450.820312 416.351562 C 2451.660156 423.070312 2449.679688 429.851562 2445.359375 435.070312 C 2441.039062 440.300781 2434.761719 443.511719 2427.988281 443.949219 L 2146.578125 462.25 C 2146.039062 462.289062 2145.5 462.308594 2144.960938 462.308594 C 2132.648438 462.308594 2122.109375 453.140625 2120.558594 440.75 C 2105.21875 318.449219 2091.179688 206.460938 2078.429688 104.789062 C 2077.550781 97.78125 2079.71875 90.738281 2084.390625 85.441406 C 2089.070312 80.148438 2095.789062 77.121094 2102.851562 77.121094 Z M 1958.828125 77.121094 C 1971.238281 77.121094 1981.710938 86.359375 1983.25 98.660156 C 1997.679688 213.75 2012.121094 328.839844 2026.550781 443.929688 C 2027.429688 450.929688 2025.261719 457.980469 2020.589844 463.269531 C 2016.269531 468.171875 2010.199219 471.128906 2003.730469 471.550781 L 2003.640625 471.558594 L 1195.410156 524.117188 C 1194.878906 524.148438 1194.339844 524.167969 1193.808594 524.167969 C 1188.5 524.167969 1183.320312 522.449219 1179.050781 519.246094 L 1175.359375 516.484375 L 1179.570312 513.777344 L 1179.488281 513.765625 C 1216.808594 510.511719 1254.128906 507.257812 1291.449219 504.003906 C 1299.898438 503.265625 1306.628906 496.628906 1307.5 488.191406 C 1309.570312 467.800781 1311.558594 448.328125 1313.449219 429.789062 C 1315.539062 409.351562 1317.519531 389.878906 1319.410156 371.378906 C 1319.929688 366.328125 1318.238281 361.300781 1314.78125 357.570312 C 1312.039062 354.609375 1308.390625 352.710938 1304.449219 352.121094 C 1303.589844 351.980469 1302.710938 351.921875 1301.828125 351.921875 C 1301.671875 351.921875 1301.511719 351.921875 1301.359375 351.929688 C 1283.441406 352.410156 1265.441406 352.890625 1247.371094 353.378906 L 1632.878906 81.609375 C 1637.03125 78.691406 1641.980469 77.121094 1647.058594 77.121094 Z M 1946.429688 531.007812 C 1962.699219 531.007812 1976.839844 532.460938 1988.851562 535.363281 C 2004.980469 539.261719 2013.578125 544.886719 2014.648438 552.246094 L 2014.109375 555.835938 C 2010.929688 563.207031 2000.660156 569.597656 1983.28125 575.007812 C 1965.789062 580.421875 1944.96875 583.496094 1920.839844 584.230469 C 1919.238281 584.253906 1917.660156 584.265625 1916.109375 584.265625 C 1895.230469 584.265625 1878.21875 582.125 1865.058594 577.84375 C 1860.539062 576.355469 1856.78125 574.660156 1853.789062 572.75 L 1849.980469 569.761719 C 1847.859375 567.671875 1846.699219 565.421875 1846.53125 563.011719 C 1846.660156 555.578125 1854.46875 548.898438 1869.96875 542.976562 C 1885.46875 537.050781 1905.121094 533.234375 1928.921875 531.523438 C 1935.011719 531.179688 1940.839844 531.007812 1946.429688 531.007812 Z M 4240.089844 520.566406 L 4246.578125 649.144531 L 4246.460938 649.136719 C 4230.640625 651.28125 4214.820312 653.421875 4198.988281 655.566406 C 4198.53125 655.628906 4198.070312 655.65625 4197.609375 655.65625 C 4193.359375 655.65625 4189.480469 653.011719 4187.980469 648.929688 C 4180.199219 627.707031 4170.988281 602.59375 4160.359375 573.585938 L 4146.550781 535.914062 C 4145.410156 532.796875 4145.839844 529.324219 4147.710938 526.585938 C 4149.589844 523.847656 4152.671875 522.1875 4155.988281 522.125 L 4217.460938 520.984375 Z M 72.097656 692.742188 C 102.949219 699.875 133.804688 707.007812 164.660156 714.140625 C 168.359375 714.996094 171.1875 717.992188 171.824219 721.734375 C 177.914062 757.351562 184 792.96875 190.089844 828.585938 C 190.539062 831.230469 189.84375 833.945312 188.171875 836.042969 C 186.503906 838.140625 184.019531 839.429688 181.339844 839.582031 L 59.417969 846.582031 C 62.074219 778.328125 66.707031 727.261719 72.023438 692.742188 Z M 4291.519531 801.820312 L 4291.839844 807.835938 C 4291.878906 808.640625 4291.878906 809.445312 4291.820312 810.253906 L 4291.941406 810.257812 C 4292.589844 827.367188 4292.351562 843.148438 4291.261719 857.621094 L 4291.140625 857.617188 L 4195.058594 866.457031 C 4194.789062 866.484375 4194.519531 866.496094 4194.25 866.496094 C 4191.960938 866.496094 4189.75 865.597656 4188.101562 863.96875 C 4186.269531 862.152344 4185.320312 859.621094 4185.53125 857.046875 L 4186.910156 839.792969 L 4188.300781 822.542969 C 4188.628906 818.433594 4191.769531 815.113281 4195.859375 814.566406 C 4227.710938 810.316406 4259.558594 806.070312 4291.398438 801.820312 Z M 23.410156 1010.238281 L 27.535156 1010.277344 L 63.980469 1010.621094 C 65.664062 1010.636719 67.28125 1011.277344 68.515625 1012.421875 L 85.65625 1028.289062 L 119.941406 1060.027344 C 121.957031 1061.894531 122.644531 1064.792969 121.679688 1067.367188 C 120.71875 1069.941406 118.296875 1071.675781 115.546875 1071.757812 C 89.054688 1072.570312 62.554688 1073.378906 36.054688 1074.1875 Z M 1975.261719 0 L 1612.378906 0 C 1608.378906 0 1604.488281 1.230469 1601.230469 3.53125 L 989.929688 434.46875 L 989.929688 434.480469 C 989.191406 434.988281 988.34375 435.308594 987.449219 435.398438 L 987.449219 435.410156 C 652.429688 470.320312 440.261719 497.980469 350.042969 512.382812 L 350.039062 512.386719 C 258.78125 526.941406 182.089844 543.457031 123.25 573.796875 L 123.25 573.800781 C 90.191406 590.84375 74.351562 617.414062 64.101562 646.082031 C 63.890625 646.671875 63.710938 647.265625 63.558594 647.867188 L 63.484375 647.871094 C 52.847656 679.792969 42.207031 768.476562 40.015625 918.140625 C 39.988281 919.949219 39.035156 921.613281 37.488281 922.550781 L 9.316406 939.648438 C 2.367188 943.867188 -1.207031 951.972656 0.367188 959.949219 L 30.222656 1110.917969 C 31.535156 1117.558594 36.226562 1123.03125 42.589844 1125.347656 L 259.148438 1204.175781 C 255.832031 1182.996094 254.113281 1161.285156 254.113281 1139.175781 C 254.113281 908.882812 440.808594 722.1875 671.101562 722.1875 C 901.394531 722.1875 1088.089844 908.882812 1088.089844 1139.175781 C 1088.089844 1165.964844 1085.558594 1192.164062 1080.730469 1217.550781 L 2883.738281 1217.546875 L 2883.839844 1217.550781 C 2879.011719 1192.164062 2876.480469 1165.964844 2876.480469 1139.175781 C 2876.480469 908.882812 3063.179688 722.1875 3293.480469 722.1875 C 3523.769531 722.1875 3710.460938 908.882812 3710.460938 1139.175781 C 3710.460938 1149.117188 3710.109375 1158.976562 3709.429688 1168.746094 C 3889.578125 1111.78125 4011.089844 1071.773438 4074.070312 1048.933594 C 4186 1008.34375 4245.351562 978.835938 4260.488281 961.121094 C 4260.828125 960.714844 4261.171875 960.308594 4261.5 959.886719 L 4261.390625 959.890625 C 4262.398438 958.75 4263.289062 957.484375 4264.03125 956.105469 C 4264.289062 955.628906 4264.578125 955.230469 4264.960938 954.855469 C 4291.78125 928.304688 4304.679688 879.957031 4301.941406 807.917969 L 4301.828125 807.921875 C 4301.890625 807.121094 4301.890625 806.316406 4301.851562 805.507812 L 4298.960938 752.300781 C 4298.550781 744.640625 4293.648438 737.945312 4286.460938 735.238281 L 4262.890625 726.355469 C 4260.929688 725.617188 4259.609375 723.796875 4259.5 721.710938 L 4245.390625 441.878906 C 4244.871094 431.589844 4236.371094 423.5 4226.058594 423.5 L 2649.859375 423.378906 C 2647.460938 423.378906 2645.359375 421.75 2644.769531 419.429688 L 2541.371094 14.570312 C 2539.179688 6 2531.46875 0 2522.621094 0 Z M 1975.261719 0 "/>
</svg>
