<?xml version="1.0" encoding="utf-8"?>
<svg xmlns="http://www.w3.org/2000/svg" viewBox="0 0 500 500">
  <g transform="matrix(4.115592, 0, 0, 4.124373, -890.144409, -700.432922)">
    <path style="stroke: rgb(0, 0, 0); fill: rgb(23, 34, 79); stroke-width: 1px;" d="M 277.514 187.131 C 283.104 190.849 288.822 194.376 294.668 197.71 C 276.107 216.758 258.505 227.759 241.862 230.711 C 239.331 222.329 238.096 214.109 238.156 206.051 C 251.057 202.647 264.162 196.231 277.471 186.8"/>
    <path style="stroke: rgb(0, 0, 0); fill: rgb(248, 235, 194); stroke-width: 1px;" d="M 300.359 200.43 C 291.648 217.273 274.386 232.516 248.573 246.158 C 246.896 243.489 245.202 239.724 243.489 234.862 C 261.416 231.085 280.147 219.541 299.68 200.229"/>
    <path style="stroke: rgb(0, 0, 0); fill: rgb(225, 198, 109); stroke-width: 1px;" d="M 305.37 202.821 C 293.971 230.387 278.916 249.721 260.204 260.824 C 256.829 257.814 253.882 254.235 251.362 250.086 C 273.643 239.34 291.404 223.523 304.647 202.635"/>
    <path style="stroke: rgb(0, 0, 0); fill: rgb(22, 35, 79); stroke-width: 1px;" d="M 315.907 206.358 L 309.574 204.532 C 296.842 234.86 281.577 254.774 263.778 264.273 C 268.464 268.544 272.862 271.815 276.972 274.086 C 302.312 256.227 315.29 233.651 315.907 206.358 Z"/>
  </g>
</svg>