<svg width="79" height="89" viewBox="0 0 79 89" fill="none" xmlns="http://www.w3.org/2000/svg">
<path d="M39.8601 0.738953C45.4501 4.45695 51.1681 7.98396 57.0141 11.318C38.4531 30.366 20.8511 41.367 4.20808 44.319C1.67708 35.937 0.442085 27.717 0.502085 19.659C13.4031 16.255 26.5081 9.83896 39.8171 0.407959" fill="url(#paint0_linear_1_5)"/>
<path d="M39.8601 0.738953C45.4501 4.45695 51.1681 7.98396 57.0141 11.318C38.4531 30.366 20.8511 41.367 4.20808 44.319C1.67708 35.937 0.442085 27.717 0.502085 19.659C13.4031 16.255 26.5081 9.83896 39.8171 0.407959" stroke="black"/>
<path d="M62.7051 14.0379C53.9941 30.8809 36.7321 46.1239 10.9191 59.7659C9.24208 57.0969 7.54808 53.3319 5.83508 48.4699C23.7621 44.6929 42.4931 33.1489 62.0261 13.8369" fill="#F8EBC2"/>
<path d="M62.7051 14.0379C53.9941 30.8809 36.7321 46.1239 10.9191 59.7659C9.24208 57.0969 7.54808 53.3319 5.83508 48.4699C23.7621 44.6929 42.4931 33.1489 62.0261 13.8369" stroke="black"/>
<path d="M67.7161 16.4289C56.3171 43.9949 41.2621 63.3289 22.5501 74.4319C19.1751 71.4219 16.2281 67.8429 13.7081 63.6939C35.9891 52.9479 53.7501 37.1309 66.9931 16.2429" fill="#E1C66D"/>
<path d="M67.7161 16.4289C56.3171 43.9949 41.2621 63.3289 22.5501 74.4319C19.1751 71.4219 16.2281 67.8429 13.7081 63.6939C35.9891 52.9479 53.7501 37.1309 66.9931 16.2429" stroke="black"/>
<path d="M78.2531 19.9659L71.9201 18.14C59.1881 48.468 43.9231 68.382 26.1241 77.881C30.8101 82.152 35.2081 85.423 39.3181 87.694C64.6581 69.835 77.6361 47.2589 78.2531 19.9659Z" fill="url(#paint1_linear_1_5)" stroke="black"/>
<defs>
<linearGradient id="paint0_linear_1_5" x1="28.757" y1="0.407959" x2="28.757" y2="44.319" gradientUnits="userSpaceOnUse">
<stop stop-color="white"/>
<stop offset="1" stop-color="#1BCD00"/>
</linearGradient>
<linearGradient id="paint1_linear_1_5" x1="52.1886" y1="18.14" x2="52.1886" y2="87.694" gradientUnits="userSpaceOnUse">
<stop stop-color="#DAFFE8"/>
<stop offset="1" stop-color="#14D10B"/>
</linearGradient>
</defs>
</svg>
